STARTFONT 2.1
FONT -Monotype-Plantin-Regular-I-Normal--17-120-100-100-P-93-iso8859-5
SIZE 12 100 100
FONTBOUNDINGBOX 22 19 -2 -4

STARTPROPERTIES 24
FOUNDRY "Monotype"
FAMILY_NAME "Plantin"
WEIGHT_NAME "Regular"
SLANT "I"
SETWIDTH_NAME "Normal"
ADD_STYLE_NAME ""
PIXEL_SIZE 17
POINT_SIZE 120
RESOLUTION_X 100
RESOLUTION_Y 100
SPACING "P"
AVERAGE_WIDTH 93
CHARSET_REGISTRY "iso8859"
CHARSET_ENCODING "5"
FACE_NAME "Plantin Inclined ISO Latin Cyrillic"
_DEC_DEVICE_FONTNAMES "PS=plantin-in-latcyrillic"
COPYRIGHT "Copyright (c) 1994 Monotype Typography Ltd."
CAP_HEIGHT 13
X_HEIGHT 8
WEIGHT 10
QUAD_WIDTH 10
DEFAULT_CHAR 160
FONT_DESCENT 4
FONT_ASCENT 16
ENDPROPERTIES

CHARS 191

STARTCHAR space
ENCODING 32
SWIDTH 250 0
DWIDTH 4 0
BBX 0 0 0 0
BITMAP
ENDCHAR

STARTCHAR exclam
ENCODING 33
SWIDTH 312 0
DWIDTH 5 0
BBX 3 12 1 0
BITMAP
20
20
20
20
40
40
40
40
00
00
80
80
ENDCHAR

STARTCHAR quotedbl
ENCODING 34
SWIDTH 417 0
DWIDTH 7 0
BBX 5 5 1 7
BITMAP
48
48
90
90
90
ENDCHAR

STARTCHAR numbersign
ENCODING 35
SWIDTH 500 0
DWIDTH 9 0
BBX 8 12 1 0
BITMAP
12
12
12
7F
24
24
24
24
FE
48
48
48
ENDCHAR

STARTCHAR dollar
ENCODING 36
SWIDTH 490 0
DWIDTH 8 0
BBX 8 13 0 -1
BITMAP
04
1E
25
24
28
18
0C
0A
0A
12
94
78
10
ENDCHAR

STARTCHAR percent
ENCODING 37
SWIDTH 729 0
DWIDTH 12 0
BBX 12 12 0 0
BITMAP
3010
4820
8840
8880
9100
6200
0260
0490
0910
1110
2120
40C0
ENDCHAR

STARTCHAR ampersand
ENCODING 38
SWIDTH 948 0
DWIDTH 16 0
BBX 16 12 1 0
BITMAP
0780
0840
1000
1002
1CE1
2119
410E
8088
8008
4010
3060
0F80
ENDCHAR

STARTCHAR quoteright
ENCODING 39
SWIDTH 313 0
DWIDTH 5 0
BBX 3 5 1 7
BITMAP
60
60
20
40
80
ENDCHAR

STARTCHAR parenleft
ENCODING 40
SWIDTH 448 0
DWIDTH 8 0
BBX 7 16 2 -4
BITMAP
06
08
10
20
40
40
40
80
80
80
80
80
80
80
40
20
ENDCHAR

STARTCHAR parenright
ENCODING 41
SWIDTH 437 0
DWIDTH 8 0
BBX 6 16 0 -4
BITMAP
10
08
04
04
04
04
04
04
04
08
08
08
10
20
40
80
ENDCHAR

STARTCHAR asterisk
ENCODING 42
SWIDTH 521 0
DWIDTH 9 0
BBX 7 7 1 5
BITMAP
10
10
92
7C
28
44
82
ENDCHAR

STARTCHAR plus
ENCODING 43
SWIDTH 667 0
DWIDTH 11 0
BBX 9 9 1 1
BITMAP
0800
0800
0800
0800
FF80
0800
0800
0800
0800
ENDCHAR

STARTCHAR comma
ENCODING 44
SWIDTH 313 0
DWIDTH 5 0
BBX 3 5 1 -3
BITMAP
60
60
20
40
80
ENDCHAR

STARTCHAR minus
ENCODING 45
SWIDTH 667 0
DWIDTH 11 0
BBX 9 1 1 5
BITMAP
FF80
ENDCHAR

STARTCHAR period
ENCODING 46
SWIDTH 312 0
DWIDTH 5 0
BBX 2 2 2 0
BITMAP
C0
C0
ENDCHAR

STARTCHAR slash
ENCODING 47
SWIDTH 281 0
DWIDTH 5 0
BBX 6 12 0 0
BITMAP
04
04
08
08
10
10
20
20
40
40
80
80
ENDCHAR

STARTCHAR zero
ENCODING 48
SWIDTH 521 0
DWIDTH 9 0
BBX 7 12 1 0
BITMAP
1C
22
42
42
82
82
82
82
84
84
88
70
ENDCHAR

STARTCHAR one
ENCODING 49
SWIDTH 521 0
DWIDTH 9 0
BBX 5 12 2 0
BITMAP
08
38
08
08
10
10
10
10
20
20
20
F8
ENDCHAR

STARTCHAR two
ENCODING 50
SWIDTH 521 0
DWIDTH 9 0
BBX 8 12 0 0
BITMAP
1E
21
01
01
01
02
04
08
10
21
43
FE
ENDCHAR

STARTCHAR three
ENCODING 51
SWIDTH 521 0
DWIDTH 9 0
BBX 8 12 0 0
BITMAP
0E
11
01
01
02
1C
04
02
02
02
84
78
ENDCHAR

STARTCHAR four
ENCODING 52
SWIDTH 521 0
DWIDTH 9 0
BBX 9 12 0 0
BITMAP
0100
0300
0500
0500
0900
1200
2200
4200
FF80
0400
0400
0400
ENDCHAR

STARTCHAR five
ENCODING 53
SWIDTH 521 0
DWIDTH 9 0
BBX 8 12 0 0
BITMAP
1F
10
20
38
44
02
02
02
02
02
84
78
ENDCHAR

STARTCHAR six
ENCODING 54
SWIDTH 521 0
DWIDTH 9 0
BBX 7 12 1 0
BITMAP
06
18
20
20
40
5C
62
82
82
84
84
78
ENDCHAR

STARTCHAR seven
ENCODING 55
SWIDTH 521 0
DWIDTH 9 0
BBX 7 12 2 0
BITMAP
7E
82
04
04
08
10
10
20
20
40
40
80
ENDCHAR

STARTCHAR eight
ENCODING 56
SWIDTH 521 0
DWIDTH 9 0
BBX 8 12 1 0
BITMAP
1E
21
41
41
22
3C
44
82
82
82
84
78
ENDCHAR

STARTCHAR nine
ENCODING 57
SWIDTH 521 0
DWIDTH 9 0
BBX 7 12 1 0
BITMAP
3C
42
42
82
82
8C
74
04
08
08
30
C0
ENDCHAR

STARTCHAR colon
ENCODING 58
SWIDTH 312 0
DWIDTH 5 0
BBX 4 8 1 0
BITMAP
30
30
00
00
00
00
C0
C0
ENDCHAR

STARTCHAR semicolon
ENCODING 59
SWIDTH 312 0
DWIDTH 5 0
BBX 4 10 0 -2
BITMAP
30
30
00
00
00
00
60
60
20
C0
ENDCHAR

STARTCHAR less
ENCODING 60
SWIDTH 667 0
DWIDTH 12 0
BBX 12 7 0 0
BITMAP
6CC0
B320
2220
2220
4440
4450
4420
ENDCHAR

STARTCHAR equal
ENCODING 61
SWIDTH 667 0
DWIDTH 11 0
BBX 9 5 1 3
BITMAP
FF80
0000
0000
0000
FF80
ENDCHAR

STARTCHAR greater
ENCODING 62
SWIDTH 667 0
DWIDTH 11 0
BBX 9 9 1 1
BITMAP
8000
E000
1800
0600
0380
0600
1800
E000
8000
ENDCHAR

STARTCHAR question
ENCODING 63
SWIDTH 406 0
DWIDTH 7 0
BBX 6 12 1 0
BITMAP
30
48
04
04
04
08
70
40
40
00
80
80
ENDCHAR

STARTCHAR at
ENCODING 64
SWIDTH 917 0
DWIDTH 16 0
BBX 14 16 1 -4
BITMAP
07C0
1830
2008
4008
43A4
8444
8844
9044
9084
9088
9190
4EE4
4004
2008
1830
07C0
ENDCHAR

STARTCHAR A
ENCODING 65
SWIDTH 729 0
DWIDTH 12 0
BBX 14 12 -1 0
BITMAP
0010
0030
0050
0090
0110
0110
03F0
0410
0810
1010
2010
F87C
ENDCHAR

STARTCHAR B
ENCODING 66
SWIDTH 698 0
DWIDTH 12 0
BBX 12 12 0 0
BITMAP
3FE0
0810
0810
0810
1020
1FC0
1040
1020
2020
2020
2040
FF80
ENDCHAR

STARTCHAR C
ENCODING 67
SWIDTH 708 0
DWIDTH 12 0
BBX 11 12 1 0
BITMAP
07E0
1840
2040
4000
4000
8000
8000
8000
8000
8080
4180
3F00
ENDCHAR

STARTCHAR D
ENCODING 68
SWIDTH 781 0
DWIDTH 13 0
BBX 13 12 0 0
BITMAP
3FC0
0830
0810
0808
1008
1008
1008
1008
2010
2010
2060
FF80
ENDCHAR

STARTCHAR E
ENCODING 69
SWIDTH 656 0
DWIDTH 11 0
BBX 13 12 -1 0
BITMAP
3FF8
0810
0810
0840
1040
1F80
1080
1080
2000
2020
2060
FFC0
ENDCHAR

STARTCHAR F
ENCODING 70
SWIDTH 635 0
DWIDTH 11 0
BBX 13 12 -1 0
BITMAP
3FF8
0810
0810
0840
1040
1F80
1080
1080
2000
2000
2000
F800
ENDCHAR

STARTCHAR G
ENCODING 71
SWIDTH 792 0
DWIDTH 13 0
BBX 12 12 1 0
BITMAP
07F0
1820
2020
4000
4000
8000
80E0
8040
8040
8040
4080
3F00
ENDCHAR

STARTCHAR H
ENCODING 72
SWIDTH 823 0
DWIDTH 14 0
BBX 15 12 0 0
BITMAP
3E3E
0808
0808
0808
1010
1FF0
1010
1010
2020
2020
2020
F8F8
ENDCHAR

STARTCHAR I
ENCODING 73
SWIDTH 375 0
DWIDTH 6 0
BBX 7 12 0 0
BITMAP
3E
08
08
08
10
10
10
10
20
20
20
F8
ENDCHAR

STARTCHAR J
ENCODING 74
SWIDTH 479 0
DWIDTH 8 0
BBX 12 16 -2 -4
BITMAP
0E30
13C0
1080
0880
0080
07C0
0100
0100
0100
0200
0200
0200
0200
8400
C400
7800
ENDCHAR

STARTCHAR K
ENCODING 75
SWIDTH 771 0
DWIDTH 13 0
BBX 14 12 0 0
BITMAP
3E3C
0818
0820
08C0
1100
1600
1E00
1100
2080
2040
2020
F838
ENDCHAR

STARTCHAR L
ENCODING 76
SWIDTH 646 0
DWIDTH 11 0
BBX 11 12 0 0
BITMAP
3E00
0800
0800
0800
1000
1000
1000
1000
2000
2020
2060
FFC0
ENDCHAR

STARTCHAR M
ENCODING 77
SWIDTH 979 0
DWIDTH 17 0
BBX 17 12 0 0
BITMAP
1E0380
060600
060600
0A0A00
0A0A00
0A1200
112400
114400
114400
218400
210400
F91F00
ENDCHAR

STARTCHAR N
ENCODING 78
SWIDTH 812 0
DWIDTH 14 0
BBX 15 12 0 0
BITMAP
383E
0C08
0C08
0A08
1210
1110
1090
1090
2060
2020
2020
F820
ENDCHAR

STARTCHAR O
ENCODING 79
SWIDTH 792 0
DWIDTH 13 0
BBX 11 12 2 0
BITMAP
0780
1840
2020
4020
4020
8020
8020
8040
8040
8080
4300
3C00
ENDCHAR

STARTCHAR P
ENCODING 80
SWIDTH 615 0
DWIDTH 10 0
BBX 11 12 0 0
BITMAP
3F80
0840
0820
0820
1020
1040
1380
1000
2000
2000
2000
F800
ENDCHAR

STARTCHAR Q
ENCODING 81
SWIDTH 792 0
DWIDTH 13 0
BBX 11 16 2 -4
BITMAP
0780
1840
2020
4020
4020
8020
8020
8040
8040
8080
4300
3C00
0800
1000
3C20
43C0
ENDCHAR

STARTCHAR R
ENCODING 82
SWIDTH 698 0
DWIDTH 12 0
BBX 12 12 0 0
BITMAP
3FC0
0820
0810
0810
1020
1FC0
1200
1100
2100
2080
20C0
F860
ENDCHAR

STARTCHAR S
ENCODING 83
SWIDTH 604 0
DWIDTH 10 0
BBX 9 12 1 0
BITMAP
1E00
2180
4080
4080
2000
1C00
0200
0100
0100
8100
C200
3C00
ENDCHAR

STARTCHAR T
ENCODING 84
SWIDTH 667 0
DWIDTH 11 0
BBX 11 12 1 0
BITMAP
7FE0
4440
8440
0400
0800
0800
0800
0800
1000
1000
1000
7C00
ENDCHAR

STARTCHAR U
ENCODING 85
SWIDTH 771 0
DWIDTH 13 0
BBX 13 12 2 0
BITMAP
F8F8
2020
2020
4020
4040
4040
4040
8040
8080
8080
4100
3E00
ENDCHAR

STARTCHAR V
ENCODING 86
SWIDTH 719 0
DWIDTH 12 0
BBX 13 12 1 0
BITMAP
F8F8
2020
2040
2080
2100
2100
2200
2400
2400
2800
3000
2000
ENDCHAR

STARTCHAR W
ENCODING 87
SWIDTH 979 0
DWIDTH 17 0
BBX 20 12 0 0
BITMAP
F39CF0
210840
211080
212100
214200
218400
218800
228800
249000
28A000
30C000
208000
ENDCHAR

STARTCHAR X
ENCODING 88
SWIDTH 781 0
DWIDTH 13 0
BBX 15 12 0 0
BITMAP
3E3E
0808
0410
0420
0240
0180
0300
0480
0840
1040
2020
F8F8
ENDCHAR

STARTCHAR Y
ENCODING 89
SWIDTH 719 0
DWIDTH 12 0
BBX 13 12 1 0
BITMAP
F8F8
2020
1040
1080
0880
0900
0600
0400
0400
0800
0800
3E00
ENDCHAR

STARTCHAR Z
ENCODING 90
SWIDTH 625 0
DWIDTH 11 0
BBX 12 12 0 0
BITMAP
1FF0
3020
2040
0080
0100
0200
0400
0800
1000
2040
40C0
FF80
ENDCHAR

STARTCHAR bracketleft
ENCODING 91
SWIDTH 375 0
DWIDTH 6 0
BBX 7 16 0 -4
BITMAP
0E
08
08
10
10
10
20
20
20
20
40
40
40
80
80
E0
ENDCHAR

STARTCHAR backslash
ENCODING 92
SWIDTH 281 0
DWIDTH 5 0
BBX 4 12 1 0
BITMAP
80
80
80
40
40
40
20
20
20
10
10
10
ENDCHAR

STARTCHAR bracketright
ENCODING 93
SWIDTH 375 0
DWIDTH 6 0
BBX 7 16 0 -4
BITMAP
0E
02
02
04
04
04
08
08
08
08
10
10
10
20
20
E0
ENDCHAR

STARTCHAR asciicircum
ENCODING 94
SWIDTH 427 0
DWIDTH 7 0
BBX 7 6 0 6
BITMAP
10
10
28
44
82
82
ENDCHAR

STARTCHAR underscore
ENCODING 95
SWIDTH 500 0
DWIDTH 9 0
BBX 9 1 0 -4
BITMAP
FF80
ENDCHAR

STARTCHAR quoteleft
ENCODING 96
SWIDTH 312 0
DWIDTH 5 0
BBX 3 5 2 7
BITMAP
20
40
80
C0
C0
ENDCHAR

STARTCHAR a
ENCODING 97
SWIDTH 521 0
DWIDTH 9 0
BBX 8 8 1 0
BITMAP
1D
23
42
42
84
84
8D
72
ENDCHAR

STARTCHAR b
ENCODING 98
SWIDTH 469 0
DWIDTH 8 0
BBX 6 12 1 0
BITMAP
20
60
20
20
58
64
44
44
84
88
90
60
ENDCHAR

STARTCHAR c
ENCODING 99
SWIDTH 385 0
DWIDTH 7 0
BBX 7 8 1 0
BITMAP
1E
22
40
40
80
80
88
70
ENDCHAR

STARTCHAR d
ENCODING 100
SWIDTH 500 0
DWIDTH 9 0
BBX 8 12 1 0
BITMAP
01
03
01
01
1A
26
42
42
84
84
8D
72
ENDCHAR

STARTCHAR e
ENCODING 101
SWIDTH 385 0
DWIDTH 7 0
BBX 6 8 1 0
BITMAP
18
24
44
78
80
80
88
70
ENDCHAR

STARTCHAR f
ENCODING 102
SWIDTH 281 0
DWIDTH 5 0
BBX 10 16 -2 -4
BITMAP
0180
0240
0200
0200
0F00
0400
0400
0400
0800
0800
0800
1000
1000
1000
A000
C000
ENDCHAR

STARTCHAR g
ENCODING 103
SWIDTH 448 0
DWIDTH 8 0
BBX 8 12 0 -4
BITMAP
0D
12
22
42
44
38
40
38
44
84
88
70
ENDCHAR

STARTCHAR h
ENCODING 104
SWIDTH 521 0
DWIDTH 9 0
BBX 8 12 1 0
BITMAP
20
60
20
20
2C
52
62
42
44
84
85
82
ENDCHAR

STARTCHAR i
ENCODING 105
SWIDTH 271 0
DWIDTH 5 0
BBX 4 12 1 0
BITMAP
10
10
00
00
40
A0
20
20
40
40
50
20
ENDCHAR

STARTCHAR j
ENCODING 106
SWIDTH 240 0
DWIDTH 4 0
BBX 6 16 -1 -4
BITMAP
04
04
00
00
10
28
08
08
10
10
10
10
20
20
A0
40
ENDCHAR

STARTCHAR k
ENCODING 107
SWIDTH 521 0
DWIDTH 9 0
BBX 7 12 1 0
BITMAP
20
60
20
20
2C
32
42
4C
70
90
8A
84
ENDCHAR

STARTCHAR l
ENCODING 108
SWIDTH 240 0
DWIDTH 4 0
BBX 3 12 1 0
BITMAP
20
60
20
20
40
40
40
40
80
80
A0
40
ENDCHAR

STARTCHAR m
ENCODING 109
SWIDTH 771 0
DWIDTH 13 0
BBX 12 8 1 0
BITMAP
6EC0
B320
2220
2220
4440
4440
4450
4420
ENDCHAR

STARTCHAR n
ENCODING 110
SWIDTH 531 0
DWIDTH 9 0
BBX 8 8 1 0
BITMAP
6C
B2
22
22
44
44
45
42
ENDCHAR

STARTCHAR o
ENCODING 111
SWIDTH 448 0
DWIDTH 8 0
BBX 6 8 1 0
BITMAP
38
44
44
84
84
88
88
70
ENDCHAR

STARTCHAR p
ENCODING 112
SWIDTH 490 0
DWIDTH 8 0
BBX 8 13 0 -4
BITMAP
10
1C
32
51
11
21
21
32
2C
40
40
40
E0
ENDCHAR

STARTCHAR q
ENCODING 113
SWIDTH 448 0
DWIDTH 8 0
BBX 6 12 1 -4
BITMAP
34
4C
44
84
88
88
98
68
10
10
10
38
ENDCHAR

STARTCHAR r
ENCODING 114
SWIDTH 344 0
DWIDTH 6 0
BBX 7 8 0 0
BITMAP
6C
B2
20
20
20
40
40
40
ENDCHAR

STARTCHAR s
ENCODING 115
SWIDTH 333 0
DWIDTH 6 0
BBX 5 8 1 0
BITMAP
38
48
40
60
10
10
90
E0
ENDCHAR

STARTCHAR t
ENCODING 116
SWIDTH 292 0
DWIDTH 5 0
BBX 4 10 1 0
BITMAP
40
40
F0
40
40
80
80
80
A0
40
ENDCHAR

STARTCHAR u
ENCODING 117
SWIDTH 531 0
DWIDTH 9 0
BBX 8 8 1 0
BITMAP
62
A2
22
22
44
44
45
3A
ENDCHAR

STARTCHAR v
ENCODING 118
SWIDTH 521 0
DWIDTH 9 0
BBX 8 8 0 0
BITMAP
72
91
11
11
21
22
24
18
ENDCHAR

STARTCHAR w
ENCODING 119
SWIDTH 688 0
DWIDTH 12 0
BBX 13 8 -1 0
BITMAP
7090
9088
1108
1108
2108
2310
2520
18C0
ENDCHAR

STARTCHAR x
ENCODING 120
SWIDTH 490 0
DWIDTH 8 0
BBX 9 8 0 0
BITMAP
3180
5280
0C00
0800
0800
1C00
A500
C200
ENDCHAR

STARTCHAR y
ENCODING 121
SWIDTH 479 0
DWIDTH 8 0
BBX 9 12 -1 -4
BITMAP
3100
5080
1080
1080
0900
0900
0A00
0600
0400
0400
8800
7000
ENDCHAR

STARTCHAR z
ENCODING 122
SWIDTH 490 0
DWIDTH 8 0
BBX 8 8 0 0
BITMAP
39
4E
04
08
10
20
62
9C
ENDCHAR

STARTCHAR braceleft
ENCODING 123
SWIDTH 479 0
DWIDTH 8 0
BBX 7 16 2 -4
BITMAP
06
08
10
10
20
20
20
C0
40
40
40
80
80
80
80
60
ENDCHAR

STARTCHAR bar
ENCODING 124
SWIDTH 198 0
DWIDTH 3 0
BBX 1 16 1 -4
BITMAP
80
80
80
80
80
80
80
80
80
80
80
80
80
80
80
80
ENDCHAR

STARTCHAR braceright
ENCODING 125
SWIDTH 479 0
DWIDTH 8 0
BBX 7 16 0 -4
BITMAP
0C
02
02
02
02
04
04
04
06
08
08
08
10
10
20
C0
ENDCHAR

STARTCHAR asciitilde
ENCODING 126
SWIDTH 542 0
DWIDTH 9 0
BBX 9 3 0 4
BITMAP
7080
8C80
8300
ENDCHAR

STARTCHAR space
ENCODING 160
SWIDTH 250 0
DWIDTH 5 0
BBX 0 0 0 0
BITMAP
ENDCHAR

STARTCHAR afii10023
ENCODING 161
SWIDTH 656 0
DWIDTH 11 0
BBX 13 15 -1 0
BITMAP
0240
0240
0000
3FF8
0810
0810
0840
1040
1F80
1080
1080
2000
2020
2060
FFC0
ENDCHAR

STARTCHAR afii10051
ENCODING 162
SWIDTH 771 0
DWIDTH 13 0
BBX 13 12 0 0
BITMAP
7FF8
4210
8210
0200
05E0
0610
0408
0408
0808
0808
0890
3E60
ENDCHAR

STARTCHAR afii10052
ENCODING 163
SWIDTH 563 0
DWIDTH 10 0
BBX 10 15 0 0
BITMAP
0300
0400
0000
3FC0
0880
0880
0800
1000
1000
1000
1000
2000
2000
2000
F800
ENDCHAR

STARTCHAR afii10053
ENCODING 164
SWIDTH 708 0
DWIDTH 12 0
BBX 11 12 2 0
BITMAP
07E0
1840
2040
4000
4000
FF00
8000
8000
8000
4080
6180
1E00
ENDCHAR

STARTCHAR afii10054
ENCODING 165
SWIDTH 604 0
DWIDTH 10 0
BBX 9 12 1 0
BITMAP
1E00
2180
4080
4080
2000
1C00
0200
0100
0100
8100
C200
3C00
ENDCHAR

STARTCHAR afii10055
ENCODING 166
SWIDTH 375 0
DWIDTH 6 0
BBX 7 12 0 0
BITMAP
3E
08
08
08
10
10
10
10
20
20
20
F8
ENDCHAR

STARTCHAR afii10056
ENCODING 167
SWIDTH 375 0
DWIDTH 6 0
BBX 7 15 0 0
BITMAP
12
12
00
3E
08
08
08
10
10
10
10
20
20
20
F8
ENDCHAR

STARTCHAR afii10057
ENCODING 168
SWIDTH 479 0
DWIDTH 8 0
BBX 12 16 -2 -4
BITMAP
0E30
13C0
1080
0880
0080
07C0
0100
0100
0100
0200
0200
0200
0200
8400
C400
7800
ENDCHAR

STARTCHAR afii10058
ENCODING 169
SWIDTH 927 0
DWIDTH 16 0
BBX 16 12 0 0
BITMAP
1FF0
0440
0440
0440
0880
08FC
0882
0881
1101
1101
9102
67FC
ENDCHAR

STARTCHAR afii10059
ENCODING 170
SWIDTH 970 0
DWIDTH 17 0
BBX 17 12 0 0
BITMAP
3EF800
082000
082000
082000
104000
1FFE00
104100
104080
208080
208080
208100
FBFE00
ENDCHAR

STARTCHAR afii10060
ENCODING 171
SWIDTH 802 0
DWIDTH 14 0
BBX 14 12 0 0
BITMAP
7FF8
4210
8210
0200
05E0
0610
0408
0408
0808
0808
0810
3E7C
ENDCHAR

STARTCHAR afii10061
ENCODING 172
SWIDTH 708 0
DWIDTH 12 0
BBX 13 15 0 0
BITMAP
00C0
0100
0000
3E18
0828
0840
0840
1080
1F00
1100
1100
2080
2080
2040
F870
ENDCHAR

STARTCHAR hyphen
ENCODING 173
SWIDTH 365 0
DWIDTH 6 0
BBX 5 1 1 4
BITMAP
F8
ENDCHAR

STARTCHAR afii10062
ENCODING 174
SWIDTH 688 0
DWIDTH 12 0
BBX 13 15 2 0
BITMAP
0440
0380
0000
F8F8
2020
2040
1080
1100
1100
0A00
0C00
0C00
8800
9000
6000
ENDCHAR

STARTCHAR afii10145
ENCODING 175
SWIDTH 813 0
DWIDTH 14 0
BBX 15 14 0 -2
BITMAP
3E3E
0808
0808
0808
1010
1010
1010
1010
2020
2020
2020
FFF8
0200
0200
ENDCHAR

STARTCHAR afii10017
ENCODING 176
SWIDTH 729 0
DWIDTH 12 0
BBX 14 12 -1 0
BITMAP
0010
0030
0050
0090
0110
0110
03F0
0410
0810
1010
2010
F87C
ENDCHAR

STARTCHAR afii10018
ENCODING 177
SWIDTH 688 0
DWIDTH 12 0
BBX 11 12 0 0
BITMAP
3FE0
0840
0840
0800
1000
1F80
1040
1020
2020
2020
2040
FF80
ENDCHAR

STARTCHAR afii10019
ENCODING 178
SWIDTH 698 0
DWIDTH 12 0
BBX 12 12 0 0
BITMAP
3FE0
0810
0810
0810
1020
1FC0
1040
1020
2020
2020
2040
FF80
ENDCHAR

STARTCHAR afii10020
ENCODING 179
SWIDTH 563 0
DWIDTH 10 0
BBX 10 12 0 0
BITMAP
3FC0
0880
0880
0800
1000
1000
1000
1000
2000
2000
2000
F800
ENDCHAR

STARTCHAR afii10021
ENCODING 180
SWIDTH 677 0
DWIDTH 12 0
BBX 14 14 -1 -2
BITMAP
1FFC
0410
0410
0410
0820
0820
0820
1020
1040
2040
2040
FFF0
C030
8020
ENDCHAR

STARTCHAR afii10022
ENCODING 181
SWIDTH 656 0
DWIDTH 11 0
BBX 13 12 -1 0
BITMAP
3FF8
0810
0810
0840
1040
1F80
1080
1080
2000
2020
2060
FFC0
ENDCHAR

STARTCHAR afii10024
ENCODING 182
SWIDTH 969 0
DWIDTH 16 0
BBX 17 12 -1 0
BITMAP
18F980
0C2280
042400
044400
044400
03F800
049000
089000
110800
110800
210400
F7C700
ENDCHAR

STARTCHAR afii10025
ENCODING 183
SWIDTH 569 0
DWIDTH 10 0
BBX 10 12 0 0
BITMAP
0F00
3080
2040
0040
0180
0E00
0100
0080
0080
8080
C100
3E00
ENDCHAR

STARTCHAR afii10026
ENCODING 184
SWIDTH 813 0
DWIDTH 14 0
BBX 15 12 0 0
BITMAP
3E3E
0818
0828
0848
1090
1110
1210
1410
2820
3020
2020
F8F8
ENDCHAR

STARTCHAR afii10027
ENCODING 185
SWIDTH 813 0
DWIDTH 14 0
BBX 15 15 0 0
BITMAP
0220
01C0
0000
3E3E
0818
0828
0848
1090
1110
1210
1410
2820
3020
2020
F8F8
ENDCHAR

STARTCHAR afii10028
ENCODING 186
SWIDTH 708 0
DWIDTH 12 0
BBX 13 12 0 0
BITMAP
3E18
0828
0840
0840
1080
1F00
1100
1100
2080
2080
2040
F870
ENDCHAR

STARTCHAR afii10029
ENCODING 187
SWIDTH 718 0
DWIDTH 12 0
BBX 13 12 0 0
BITMAP
1FF8
0420
0420
0420
0840
0840
0840
0840
1080
1080
9080
63E0
ENDCHAR

STARTCHAR afii10030
ENCODING 188
SWIDTH 979 0
DWIDTH 17 0
BBX 17 12 0 0
BITMAP
1E0380
060600
060600
0A0A00
0A0A00
0A1200
112400
114400
114400
218400
210400
F91F00
ENDCHAR

STARTCHAR afii10031
ENCODING 189
SWIDTH 823 0
DWIDTH 14 0
BBX 15 12 0 0
BITMAP
3E3E
0808
0808
0808
1010
1FF0
1010
1010
2020
2020
2020
F8F8
ENDCHAR

STARTCHAR afii10032
ENCODING 190
SWIDTH 792 0
DWIDTH 13 0
BBX 11 12 2 0
BITMAP
0780
1840
2020
4020
4020
8020
8020
8040
8040
8080
4300
3C00
ENDCHAR

STARTCHAR afii10033
ENCODING 191
SWIDTH 813 0
DWIDTH 14 0
BBX 15 12 0 0
BITMAP
3FFE
0808
0808
0808
1010
1010
1010
1010
2020
2020
2020
F8F8
ENDCHAR

STARTCHAR afii10034
ENCODING 192
SWIDTH 615 0
DWIDTH 10 0
BBX 11 12 0 0
BITMAP
3F80
0840
0820
0820
1020
1040
1380
1000
2000
2000
2000
F800
ENDCHAR

STARTCHAR afii10035
ENCODING 193
SWIDTH 708 0
DWIDTH 12 0
BBX 11 12 1 0
BITMAP
07E0
1840
2040
4000
4000
8000
8000
8000
8000
8080
4180
3F00
ENDCHAR

STARTCHAR afii10036
ENCODING 194
SWIDTH 667 0
DWIDTH 11 0
BBX 11 12 1 0
BITMAP
7FE0
4440
8440
0400
0800
0800
0800
0800
1000
1000
1000
7C00
ENDCHAR

STARTCHAR afii10037
ENCODING 195
SWIDTH 688 0
DWIDTH 12 0
BBX 13 12 2 0
BITMAP
F8F8
2020
2040
1080
1100
1100
0A00
0C00
0C00
8800
9000
6000
ENDCHAR

STARTCHAR afii10038
ENCODING 196
SWIDTH 917 0
DWIDTH 16 0
BBX 14 12 2 0
BITMAP
07C0
0100
0FE0
3118
4104
8104
8204
8208
6230
1FC0
0200
0F80
ENDCHAR

STARTCHAR afii10039
ENCODING 197
SWIDTH 781 0
DWIDTH 13 0
BBX 15 12 0 0
BITMAP
3E3E
0808
0410
0420
0240
0180
0300
0480
0840
1040
2020
F8F8
ENDCHAR

STARTCHAR afii10040
ENCODING 198
SWIDTH 813 0
DWIDTH 14 0
BBX 15 14 0 -2
BITMAP
3E3E
0808
0808
0808
1010
1010
1010
1010
2020
2020
2020
FFF8
0018
0010
ENDCHAR

STARTCHAR afii10041
ENCODING 199
SWIDTH 771 0
DWIDTH 13 0
BBX 13 12 1 0
BITMAP
F8F8
2020
2020
2020
4040
40C0
2140
1E40
0080
0080
0080
03E0
ENDCHAR

STARTCHAR afii10042
ENCODING 200
SWIDTH 1000 0
DWIDTH 17 0
BBX 17 12 0 0
BITMAP
3EEF80
084200
084200
084200
108400
108400
108400
108400
210800
210800
210800
FFFE00
ENDCHAR

STARTCHAR afii10043
ENCODING 201
SWIDTH 1000 0
DWIDTH 17 0
BBX 17 14 0 -2
BITMAP
3EEF80
084200
084200
084200
108400
108400
108400
108400
210800
210800
210800
FFFE00
000600
000400
ENDCHAR

STARTCHAR afii10044
ENCODING 202
SWIDTH 741 0
DWIDTH 13 0
BBX 13 12 0 0
BITMAP
7F80
4200
8200
0200
0400
07E0
0410
0408
0808
0808
0810
3FE0
ENDCHAR

STARTCHAR afii10045
ENCODING 203
SWIDTH 979 0
DWIDTH 17 0
BBX 18 12 0 0
BITMAP
3E07C0
080100
080100
080100
100200
1F8200
104200
102200
202400
202400
204400
FF9F00
ENDCHAR

STARTCHAR afii10046
ENCODING 204
SWIDTH 642 0
DWIDTH 11 0
BBX 11 12 0 0
BITMAP
3E00
0800
0800
0800
1000
1F80
1040
1020
2020
2020
2040
FF80
ENDCHAR

STARTCHAR afii10047
ENCODING 205
SWIDTH 708 0
DWIDTH 12 0
BBX 11 12 1 0
BITMAP
0F80
3040
2040
0020
0020
1FE0
0040
0040
0040
8080
C300
3C00
ENDCHAR

STARTCHAR afii10048
ENCODING 206
SWIDTH 1135 0
DWIDTH 18 0
BBX 18 12 0 0
BITMAP
3E0F00
083080
084040
088040
108040
1F0040
110040
110080
210080
210100
208600
F87800
ENDCHAR

STARTCHAR afii10049
ENCODING 207
SWIDTH 698 0
DWIDTH 12 0
BBX 13 12 0 0
BITMAP
0FF8
1020
2020
2020
1040
0FC0
0440
0840
1080
2080
4080
C3E0
ENDCHAR

STARTCHAR afii10065
ENCODING 208
SWIDTH 521 0
DWIDTH 9 0
BBX 8 8 1 0
BITMAP
1D
23
42
42
84
84
8D
72
ENDCHAR

STARTCHAR afii10066
ENCODING 209
SWIDTH 448 0
DWIDTH 8 0
BBX 7 12 1 0
BITMAP
02
1C
20
40
58
64
C4
84
84
88
98
60
ENDCHAR

STARTCHAR afii10067
ENCODING 210
SWIDTH 385 0
DWIDTH 7 0
BBX 6 8 1 0
BITMAP
18
24
48
70
88
88
90
60
ENDCHAR

STARTCHAR afii10068
ENCODING 211
SWIDTH 302 0
DWIDTH 5 0
BBX 5 8 0 0
BITMAP
30
48
08
30
40
80
90
60
ENDCHAR

STARTCHAR afii10069
ENCODING 212
SWIDTH 449 0
DWIDTH 8 0
BBX 6 12 1 0
BITMAP
30
08
08
04
34
4C
44
84
84
88
88
70
ENDCHAR

STARTCHAR afii10070
ENCODING 213
SWIDTH 385 0
DWIDTH 7 0
BBX 6 8 1 0
BITMAP
18
24
44
78
80
80
88
70
ENDCHAR

STARTCHAR afii10072
ENCODING 214
SWIDTH 875 0
DWIDTH 15 0
BBX 14 8 0 0
BITMAP
339C
4924
0920
0FC0
1240
1240
A248
C730
ENDCHAR

STARTCHAR afii10073
ENCODING 215
SWIDTH 365 0
DWIDTH 6 0
BBX 6 8 0 0
BITMAP
18
24
04
18
08
08
90
60
ENDCHAR

STARTCHAR afii10074
ENCODING 216
SWIDTH 531 0
DWIDTH 9 0
BBX 8 8 1 0
BITMAP
62
A2
22
22
44
44
45
3A
ENDCHAR

STARTCHAR afii10075
ENCODING 217
SWIDTH 531 0
DWIDTH 9 0
BBX 8 11 1 0
BITMAP
22
1C
00
62
A2
22
22
44
44
45
3A
ENDCHAR

STARTCHAR afii10076
ENCODING 218
SWIDTH 489 0
DWIDTH 8 0
BBX 8 8 1 0
BITMAP
63
24
28
30
48
48
88
86
ENDCHAR

STARTCHAR afii10077
ENCODING 219
SWIDTH 490 0
DWIDTH 8 0
BBX 8 8 0 0
BITMAP
07
09
09
12
12
24
25
C6
ENDCHAR

STARTCHAR afii10078
ENCODING 220
SWIDTH 586 0
DWIDTH 10 0
BBX 11 8 0 0
BITMAP
0840
08C0
1980
1980
2A80
2C80
2CA0
C840
ENDCHAR

STARTCHAR afii10079
ENCODING 221
SWIDTH 525 0
DWIDTH 8 0
BBX 7 8 1 0
BITMAP
C4
44
44
7C
88
88
8A
84
ENDCHAR

STARTCHAR afii10080
ENCODING 222
SWIDTH 448 0
DWIDTH 8 0
BBX 6 8 1 0
BITMAP
38
44
44
84
84
88
88
70
ENDCHAR

STARTCHAR afii10081
ENCODING 223
SWIDTH 531 0
DWIDTH 9 0
BBX 8 8 1 0
BITMAP
6C
B2
22
22
44
44
45
42
ENDCHAR

STARTCHAR afii10082
ENCODING 224
SWIDTH 490 0
DWIDTH 8 0
BBX 8 13 0 -4
BITMAP
10
1C
32
51
11
21
21
32
2C
40
40
40
E0
ENDCHAR

STARTCHAR afii10083
ENCODING 225
SWIDTH 385 0
DWIDTH 7 0
BBX 7 8 1 0
BITMAP
1E
22
40
40
80
80
88
70
ENDCHAR

STARTCHAR afii10084
ENCODING 226
SWIDTH 771 0
DWIDTH 13 0
BBX 12 8 1 0
BITMAP
6EC0
B320
2220
2220
4440
4440
4450
4420
ENDCHAR

STARTCHAR afii10085
ENCODING 227
SWIDTH 479 0
DWIDTH 8 0
BBX 9 12 -1 -4
BITMAP
3100
5080
1080
1080
0900
0900
0A00
0600
0400
0400
8800
7000
ENDCHAR

STARTCHAR afii10086
ENCODING 228
SWIDTH 625 0
DWIDTH 11 0
BBX 9 16 1 -4
BITMAP
0180
0280
0400
0400
1F00
6480
4480
8880
8880
9100
9300
7C00
1000
2000
A000
C000
ENDCHAR

STARTCHAR afii10087
ENCODING 229
SWIDTH 490 0
DWIDTH 8 0
BBX 9 8 0 0
BITMAP
3180
5280
0C00
0800
0800
1C00
A500
C200
ENDCHAR

STARTCHAR afii10088
ENCODING 230
SWIDTH 521 0
DWIDTH 9 0
BBX 8 10 1 -2
BITMAP
62
A2
22
22
44
44
45
3A
02
04
ENDCHAR

STARTCHAR afii10089
ENCODING 231
SWIDTH 490 0
DWIDTH 8 0
BBX 6 8 1 0
BITMAP
C4
44
88
88
70
10
14
18
ENDCHAR

STARTCHAR afii10090
ENCODING 232
SWIDTH 792 0
DWIDTH 13 0
BBX 12 8 1 0
BITMAP
4210
A210
2210
4420
4420
8C40
94D0
6360
ENDCHAR

STARTCHAR afii10091
ENCODING 233
SWIDTH 792 0
DWIDTH 13 0
BBX 12 10 1 -2
BITMAP
4210
A210
2210
4420
4420
8C40
94D0
6360
0040
0080
ENDCHAR

STARTCHAR afii10092
ENCODING 234
SWIDTH 396 0
DWIDTH 7 0
BBX 7 8 -1 0
BITMAP
70
90
10
1C
12
22
24
18
ENDCHAR

STARTCHAR afii10093
ENCODING 235
SWIDTH 624 0
DWIDTH 10 0
BBX 9 8 1 0
BITMAP
C300
4100
4100
7100
4A00
8A00
9280
6300
ENDCHAR

STARTCHAR afii10094
ENCODING 236
SWIDTH 406 0
DWIDTH 7 0
BBX 5 8 1 0
BITMAP
C0
40
40
70
48
88
90
60
ENDCHAR

STARTCHAR afii10095
ENCODING 237
SWIDTH 396 0
DWIDTH 7 0
BBX 7 8 0 0
BITMAP
1C
22
02
3E
04
04
88
70
ENDCHAR

STARTCHAR afii10096
ENCODING 238
SWIDTH 667 0
DWIDTH 11 0
BBX 9 8 1 0
BITMAP
C700
4880
4880
7080
9080
9100
9100
8E00
ENDCHAR

STARTCHAR afii10097
ENCODING 239
SWIDTH 542 0
DWIDTH 9 0
BBX 9 8 -1 0
BITMAP
0680
0980
1100
1100
0E00
1200
2280
C300
ENDCHAR

STARTCHAR afii61352
ENCODING 240
SWIDTH 1031 0
DWIDTH 18 0
BBX 17 12 0 0
BITMAP
1C0600
040A00
061000
061300
0A2480
0A2880
092880
094900
114600
10C000
A08000
C09E00
ENDCHAR

STARTCHAR afii10071
ENCODING 241
SWIDTH 385 0
DWIDTH 7 0
BBX 6 11 1 0
BITMAP
24
24
00
18
24
44
78
80
80
88
70
ENDCHAR

STARTCHAR afii10099
ENCODING 242
SWIDTH 510 0
DWIDTH 9 0
BBX 7 15 1 -3
BITMAP
20
7E
20
20
2C
52
62
42
42
84
84
84
04
04
08
ENDCHAR

STARTCHAR afii10100
ENCODING 243
SWIDTH 448 0
DWIDTH 7 0
BBX 8 11 0 0
BITMAP
0C
10
00
7F
22
20
20
40
40
40
E0
ENDCHAR

STARTCHAR afii10101
ENCODING 244
SWIDTH 406 0
DWIDTH 7 0
BBX 7 8 1 0
BITMAP
1C
22
40
78
80
80
88
70
ENDCHAR

STARTCHAR afii10102
ENCODING 245
SWIDTH 333 0
DWIDTH 6 0
BBX 5 8 1 0
BITMAP
38
48
40
60
10
10
90
E0
ENDCHAR

STARTCHAR afii10103
ENCODING 246
SWIDTH 271 0
DWIDTH 5 0
BBX 4 12 1 0
BITMAP
10
10
00
00
40
A0
20
20
40
40
50
20
ENDCHAR

STARTCHAR afii10104
ENCODING 247
SWIDTH 271 0
DWIDTH 5 0
BBX 4 11 1 0
BITMAP
90
90
00
40
A0
20
20
40
40
50
20
ENDCHAR

STARTCHAR afii10105
ENCODING 248
SWIDTH 240 0
DWIDTH 4 0
BBX 6 16 -1 -4
BITMAP
04
04
00
00
10
28
08
08
10
10
10
10
20
20
A0
40
ENDCHAR

STARTCHAR afii10106
ENCODING 249
SWIDTH 663 0
DWIDTH 11 0
BBX 11 8 -1 0
BITMAP
0300
0500
0900
09C0
1120
1220
2240
C180
ENDCHAR

STARTCHAR afii10107
ENCODING 250
SWIDTH 691 0
DWIDTH 11 0
BBX 9 8 1 0
BITMAP
CC00
4400
4400
7F00
8480
8880
8900
8600
ENDCHAR

STARTCHAR afii10108
ENCODING 251
SWIDTH 500 0
DWIDTH 9 0
BBX 8 12 1 0
BITMAP
20
7E
20
20
2C
52
62
42
44
84
85
82
ENDCHAR

STARTCHAR afii10109
ENCODING 252
SWIDTH 489 0
DWIDTH 8 0
BBX 8 11 1 0
BITMAP
0C
10
00
63
24
28
30
48
48
88
86
ENDCHAR

STARTCHAR section
ENCODING 253
SWIDTH 458 0
DWIDTH 8 0
BBX 10 16 -1 -4
BITMAP
0380
04C0
0840
0800
1400
1400
1400
1200
1200
0A00
0A00
0A00
0400
8400
C800
7000
ENDCHAR

STARTCHAR afii10110
ENCODING 254
SWIDTH 479 0
DWIDTH 8 0
BBX 9 15 -1 -4
BITMAP
1100
0E00
0000
3100
5080
1080
1080
0900
0900
0A00
0600
0400
0400
8800
7000
ENDCHAR

STARTCHAR afii10193
ENCODING 255
SWIDTH 531 0
DWIDTH 9 0
BBX 8 10 1 -2
BITMAP
62
A2
22
22
44
44
45
3A
20
40
ENDCHAR
ENDFONT
